# xmcd
#
# Track frame offsets: 
#        150
#        11670
#        24725
#        41100
#        54040
#        66247
#        77865
#        88202
#        100750
#        112775
#        127322
#        140195
#
# Disc length: 2038 seconds
#
# Revision: 3
# Processed by: cddbd v1.5.2PL0 Copyright (c) Steve Scherf et al.
# Submitted via: ExactAudioCopy v1.0b3
#
DISCID=a607f40c
DTITLE=Freddy Fender - The Best Of Freddy Fender: 20th Century Masters
DTITLE=The Millennium Collection
DYEAR=2001
DGENRE=Country
TTITLE0=Before The Next Teardrop Falls
TTITLE1=Wasted Days And Wasted Nights
TTITLE2=Secret Love
TTITLE3=You'll Lose A Good Thing
TTITLE4=Vaya Con Dios
TTITLE5=Livin' It Down
TTITLE6=The Rains Came
TTITLE7=Sugar Coated Love
TTITLE8=If You Don't Love Me (Why Don't You Just Leave Me Alone)
TTITLE9=Since I Met You Baby
TTITLE10=Talk To Me
TTITLE11=I Love My Rancho Grande
EXTD=
EXTT0=
EXTT1=
EXTT2=
EXTT3=
EXTT4=
EXTT5=
EXTT6=
EXTT7=
EXTT8=
EXTT9=
EXTT10=
EXTT11=
PLAYORDER=
